<svg width="109" height="76" viewBox="0 0 109 76" fill="none" xmlns="http://www.w3.org/2000/svg">
<path d="M109 31.5C109 48.897 94.897 63 77.5 63C60.103 63 46 48.897 46 31.5C46 14.103 60.103 0 77.5 0C94.897 0 109 14.103 109 31.5Z" fill="url(#paint0_radial_6_62)"/>
<path d="M15.5095 63.4789C6.94385 63.4789 0 56.5424 0 47.9859C0 40.5122 5.2976 34.2745 12.3463 32.8154C14.7695 23.7095 23.0792 17 32.9577 17C44.1253 17 53.2879 25.5748 54.2075 36.4929C60.821 37.3998 65.9155 43.0669 65.9155 49.9225C65.9155 57.4095 59.8396 63.4789 52.3447 63.4789H33.9271H15.5095Z" fill="white" fill-opacity="0.15"/>
<path d="M36.0588 76C27.7421 76 21 69.2843 21 61C21 53.7641 26.1436 47.7248 32.9876 46.3122C35.3403 37.496 43.4086 31 53 31C63.843 31 72.7393 39.302 73.6322 49.8726C80.0536 50.7507 85 56.2375 85 62.875C85 70.1237 79.1007 76 71.8235 76H53.9412H36.0588Z" fill="white" fill-opacity="0.3"/>
<defs>
<radialGradient id="paint0_radial_6_62" cx="0" cy="0" r="1" gradientUnits="userSpaceOnUse" gradientTransform="translate(90.1768 16.2878) rotate(127.112) scale(53.6388)">
<stop stop-color="#FFD600"/>
<stop offset="1" stop-color="#FF6B00"/>
</radialGradient>
</defs>
</svg>
