<svg width="26" height="26" viewBox="0 0 26 26" fill="none" xmlns="http://www.w3.org/2000/svg">
<path d="M15.535 25.8461C15.21 26.0192 14.8796 26.0463 14.5437 25.9272C14.2079 25.8082 13.9533 25.5863 13.78 25.2616L11.83 21.3652C11.6567 21.0405 11.6296 20.7104 11.7488 20.3749C11.8679 20.0394 12.09 19.785 12.415 19.6118C12.74 19.4387 13.0704 19.4116 13.4062 19.5307C13.7421 19.6497 13.9967 19.8716 14.17 20.1963L16.12 24.0927C16.2933 24.4174 16.3204 24.7475 16.2013 25.083C16.0821 25.4185 15.86 25.6729 15.535 25.8461ZM23.335 25.8461C23.01 26.0192 22.6796 26.0463 22.3437 25.9272C22.0079 25.8082 21.7533 25.5863 21.58 25.2616L19.63 21.3652C19.4567 21.0405 19.4296 20.7104 19.5487 20.3749C19.6679 20.0394 19.89 19.785 20.215 19.6118C20.54 19.4387 20.8704 19.4116 21.2062 19.5307C21.5421 19.6497 21.7967 19.8716 21.97 20.1963L23.92 24.0927C24.0933 24.4174 24.1204 24.7475 24.0012 25.083C23.8821 25.4185 23.66 25.6729 23.335 25.8461ZM7.735 25.8461C7.41 26.0192 7.07958 26.0463 6.74375 25.9272C6.40792 25.8082 6.15333 25.5863 5.98 25.2616L4.03 21.3652C3.85667 21.0405 3.82958 20.7104 3.94875 20.3749C4.06792 20.0394 4.29 19.785 4.615 19.6118C4.94 19.4387 5.27042 19.4116 5.60625 19.5307C5.94208 19.6497 6.19667 19.8716 6.37 20.1963L8.32 24.0927C8.49333 24.4174 8.52042 24.7475 8.40125 25.083C8.28208 25.4185 8.06 25.6729 7.735 25.8461ZM7.15 18.1832C5.17833 18.1832 3.49375 17.4851 2.09625 16.0889C0.69875 14.6926 0 13.0096 0 11.0398C0 9.24311 0.595833 7.67373 1.7875 6.33164C2.97917 4.98955 4.4525 4.19944 6.2075 3.96133C6.90083 2.72747 7.84875 1.75879 9.05125 1.05527C10.2537 0.351758 11.57 0 13 0C14.95 0 16.6454 0.62234 18.0862 1.86702C19.5271 3.1117 20.3992 4.66485 20.7025 6.52646C22.1975 6.65634 23.4542 7.27327 24.4725 8.37724C25.4908 9.48122 26 10.8017 26 12.3386C26 13.9621 25.4312 15.342 24.2937 16.4785C23.1562 17.6149 21.775 18.1832 20.15 18.1832H7.15ZM7.15 15.5856H20.15C21.06 15.5856 21.8292 15.2717 22.4575 14.6439C23.0858 14.0162 23.4 13.2477 23.4 12.3386C23.4 11.4294 23.0858 10.661 22.4575 10.0332C21.8292 9.40546 21.06 9.09158 20.15 9.09158H18.2V7.79278C18.2 6.36411 17.6908 5.14107 16.6725 4.12368C15.6542 3.10629 14.43 2.59759 13 2.59759C11.96 2.59759 11.0121 2.879 10.1562 3.44181C9.30042 4.00463 8.65583 4.76226 8.2225 5.71471L7.8975 6.49399H7.085C5.85 6.53728 4.79375 6.99727 3.91625 7.87396C3.03875 8.75065 2.6 9.80592 2.6 11.0398C2.6 12.2953 3.04417 13.3668 3.9325 14.2543C4.82083 15.1418 5.89333 15.5856 7.15 15.5856Z" fill="white"/>
</svg>
