<svg width="26" height="23" viewBox="0 0 26 23" fill="none" xmlns="http://www.w3.org/2000/svg">
<path d="M12.35 22.5C11.2667 22.5 10.3458 22.1225 9.5875 21.3676C8.82917 20.6127 8.45 19.6961 8.45 18.6176H11.05C11.05 18.9843 11.1746 19.2917 11.4238 19.5397C11.6729 19.7877 11.9817 19.9118 12.35 19.9118C12.7183 19.9118 13.0271 19.7877 13.2763 19.5397C13.5254 19.2917 13.65 18.9843 13.65 18.6176C13.65 18.251 13.5254 17.9436 13.2763 17.6956C13.0271 17.4476 12.7183 17.3235 12.35 17.3235H0V14.7353H12.35C13.4333 14.7353 14.3542 15.1127 15.1125 15.8676C15.8708 16.6225 16.25 17.5392 16.25 18.6176C16.25 19.6961 15.8708 20.6127 15.1125 21.3676C14.3542 22.1225 13.4333 22.5 12.35 22.5ZM0 9.55882V6.97059H17.55C18.1133 6.97059 18.5792 6.78726 18.9475 6.42059C19.3158 6.05392 19.5 5.5902 19.5 5.02941C19.5 4.46863 19.3158 4.0049 18.9475 3.63824C18.5792 3.27157 18.1133 3.08824 17.55 3.08824C16.9867 3.08824 16.5208 3.27157 16.1525 3.63824C15.7842 4.0049 15.6 4.46863 15.6 5.02941H13C13 3.75686 13.4387 2.68382 14.3162 1.81029C15.1937 0.936765 16.2717 0.5 17.55 0.5C18.8283 0.5 19.9062 0.936765 20.7837 1.81029C21.6612 2.68382 22.1 3.75686 22.1 5.02941C22.1 6.30196 21.6612 7.375 20.7837 8.24853C19.9062 9.12206 18.8283 9.55882 17.55 9.55882H0ZM21.45 19.9118V17.3235C22.0133 17.3235 22.4792 17.1402 22.8475 16.7735C23.2158 16.4069 23.4 15.9431 23.4 15.3824C23.4 14.8216 23.2158 14.3578 22.8475 13.9912C22.4792 13.6245 22.0133 13.4412 21.45 13.4412H0V10.8529H21.45C22.7283 10.8529 23.8063 11.2897 24.6838 12.1632C25.5613 13.0368 26 14.1098 26 15.3824C26 16.6549 25.5613 17.7279 24.6838 18.6015C23.8063 19.475 22.7283 19.9118 21.45 19.9118Z" fill="white"/>
</svg>
