<svg width="22" height="24" viewBox="0 0 22 24" fill="none" xmlns="http://www.w3.org/2000/svg">
<path d="M11 24C7.95208 24 5.35677 23.0316 3.21406 21.0947C1.07135 19.1579 0 16.8 0 14.0211C0 12.6947 0.280729 11.4263 0.842188 10.2158C1.40365 9.00526 2.2 7.93684 3.23125 7.01053L11 0L18.7688 7.01053C19.8 7.93684 20.5964 9.00526 21.1578 10.2158C21.7193 11.4263 22 12.6947 22 14.0211C22 16.8 20.9286 19.1579 18.7859 21.0947C16.6432 23.0316 14.0479 24 11 24ZM11 21.4737C13.2917 21.4737 15.2396 20.7526 16.8438 19.3105C18.4479 17.8684 19.25 16.1053 19.25 14.0211C19.25 13.0316 19.0438 12.0895 18.6313 11.1947C18.2188 10.3 17.6229 9.51579 16.8438 8.8421L11 3.53684L5.15625 8.8421C4.37708 9.51579 3.78125 10.3 3.36875 11.1947C2.95625 12.0895 2.75 13.0316 2.75 14.0211C2.75 16.1053 3.55208 17.8684 5.15625 19.3105C6.76042 20.7526 8.70833 21.4737 11 21.4737Z" fill="white"/>
</svg>
